{"glyphs":{":":{"x_min":0,"x_max":270,"ha":270,"o":"m 134 92 q 157 92 173 77 q 189 62 189 41 q 189 20 173 5 q 157 -10 134 -10 q 111 -10 96 5 q 80 20 80 41 q 80 62 96 77 q 111 92 134 92 z m 134 431 q 157 431 173 417 q 189 402 189 381 q 189 360 173 345 q 157 330 134 330 q 111 330 96 345 q 80 359 80 381 q 80 402 95 417 q 111 431 134 431 z"},"$":{"x_min":0,"x_max":493,"ha":493,"o":"m 241 618 l 238 618 q 188 618 159 593 q 130 568 130 525 q 130 488 157 458 q 184 428 241 399 z m 281 27 q 332 33 362 64 q 392 96 392 142 q 392 186 366 218 q 341 250 281 281 z m 241 -84 l 241 0 q 158 3 104 40 q 49 76 49 123 q 49 140 58 150 q 67 161 81 161 q 109 161 124 119 q 127 108 129 103 q 143 65 170 47 q 196 29 241 26 l 241 302 q 147 351 105 396 q 64 440 64 493 q 64 560 111 602 q 159 644 241 649 l 241 721 l 281 721 l 281 646 q 349 639 393 609 q 437 579 437 542 q 437 527 427 517 q 417 508 402 508 q 380 508 359 548 q 353 562 348 570 q 334 594 319 604 q 304 614 281 617 l 281 381 q 380 326 421 280 q 461 234 461 178 q 461 110 411 61 q 361 12 281 2 l 281 -84 z"},"?":{"x_min":0,"x_max":405,"ha":405,"o":"m 172 92 q 195 92 211 77 q 227 62 227 41 q 227 20 211 5 q 195 -10 172 -10 q 149 -10 134 5 q 118 20 118 41 q 118 62 134 77 q 149 92 172 92 z m 167 185 q 141 215 126 246 q 112 276 112 302 q 112 331 129 350 q 147 369 200 392 q 206 395 215 399 q 312 440 312 502 q 312 546 286 573 q 260 599 216 599 q 202 599 170 595 q 138 591 120 591 q 93 591 79 601 q 65 611 65 630 q 65 654 88 668 q 111 681 153 681 q 244 681 297 629 q 350 577 350 489 q 350 435 327 397 q 303 359 252 331 q 236 322 207 310 q 154 288 154 264 q 154 250 163 233 q 172 215 195 185 z"},"<":{"x_min":0,"x_max":833,"ha":833,"o":"m 704 559 l 704 497 l 216 298 l 704 100 l 704 37 l 129 273 l 129 323 z"},"'":{"x_min":0,"x_max":170,"ha":170,"o":"m 93 422 l 77 422 l 45 645 q 44 649 44 653 q 44 657 44 664 q 44 688 54 701 q 65 714 85 714 q 105 714 116 701 q 127 688 127 665 q 127 661 125 648 q 125 646 125 645 z"},"=":{"x_min":0,"x_max":833,"ha":833,"o":"m 124 233 l 709 233 l 709 176 l 124 176 z m 124 420 l 709 420 l 709 363 l 124 363 z"},"a":{"x_min":0,"x_max":411,"ha":411,"o":"m 250 194 q 208 171 154 149 q 138 143 133 140 q 119 133 111 118 q 103 104 103 86 q 103 61 119 44 q 135 28 159 28 q 178 28 201 39 q 224 50 250 72 z m 250 50 q 221 19 191 3 q 161 -12 128 -12 q 83 -12 58 11 q 33 34 33 75 q 33 102 47 123 q 62 145 87 155 q 94 158 149 177 q 205 197 250 217 l 250 293 q 250 353 233 376 q 216 400 175 400 q 146 400 131 385 q 115 371 115 344 q 115 338 115 335 q 115 332 116 329 l 42 299 l 42 303 q 42 352 92 393 q 142 434 202 434 q 226 434 247 427 q 269 419 285 406 q 307 388 316 366 q 325 344 325 290 l 325 282 l 325 100 q 325 64 331 54 q 337 44 352 44 q 362 44 374 49 q 386 53 402 63 l 407 48 q 374 16 349 1 q 325 -13 306 -13 q 282 -13 268 3 q 253 20 250 50 z"},"L":{"x_min":0,"x_max":580,"ha":580,"o":"m 220 105 q 220 64 232 52 q 243 41 292 41 l 399 41 q 436 41 453 47 q 471 54 490 70 q 502 81 520 101 q 538 122 564 157 l 587 156 l 507 0 l 32 0 l 32 23 l 43 23 q 87 23 107 41 q 127 59 127 100 l 127 566 q 127 607 107 626 q 87 644 43 644 l 32 644 l 32 667 l 339 667 l 339 644 q 334 645 328 645 q 322 645 310 645 q 262 645 241 626 q 220 608 220 566 z"},"3":{"x_min":0,"x_max":493,"ha":493,"o":"m 64 516 l 40 525 q 72 599 124 640 q 175 680 239 680 q 298 680 337 645 q 376 610 376 559 q 376 516 351 478 q 325 439 275 406 l 279 406 q 350 406 393 361 q 436 315 436 241 q 436 204 424 167 q 412 130 389 97 q 350 41 294 12 q 238 -17 170 -17 q 99 -17 55 5 q 11 28 11 62 q 11 77 20 86 q 29 95 45 95 q 70 95 108 60 l 109 59 q 138 33 158 24 q 178 14 200 14 q 221 14 242 22 q 263 30 281 45 q 317 75 338 119 q 358 163 358 210 q 358 271 327 309 q 295 348 247 348 q 230 348 210 343 q 190 337 166 325 l 155 341 q 247 411 275 448 q 303 485 303 524 q 303 566 274 595 q 245 624 203 624 q 162 624 127 597 q 93 570 64 516 z"},";":{"x_min":0,"x_max":270,"ha":270,"o":"m 134 431 q 157 431 173 417 q 189 402 189 381 q 189 360 173 345 q 157 330 134 330 q 111 330 95 345 q 79 360 79 381 q 79 402 95 417 q 111 431 134 431 z m 84 -138 q 124 -119 147 -87 q 171 -56 171 -23 q 171 -16 168 -11 q 165 -7 160 -7 q 159 -7 151 -8 q 142 -10 135 -10 q 107 -10 93 3 q 79 16 79 41 q 79 63 95 78 q 112 92 138 92 q 171 92 190 68 q 210 44 210 3 q 210 -52 178 -96 q 147 -140 93 -160 z"},"J":{"x_min":0,"x_max":344,"ha":344,"o":"m 219 153 q 219 -49 160 -148 q 101 -248 -19 -248 q -57 -248 -82 -233 q -106 -217 -106 -194 q -106 -176 -96 -164 q -85 -153 -69 -153 q -63 -153 -59 -154 q -55 -154 -52 -156 q -45 -160 -32 -168 q 18 -199 42 -199 q 86 -199 106 -162 q 126 -125 126 -41 l 126 566 q 126 607 106 626 q 86 644 42 644 l 31 644 l 31 667 l 314 667 l 314 644 l 303 644 q 259 644 239 626 q 219 607 219 566 z"},"V":{"x_min":0,"x_max":648,"ha":648,"o":"m 300 -15 l 76 555 q 52 614 33 629 q 15 644 -19 644 l -28 644 l -28 667 l 265 667 l 265 644 q 207 644 183 634 q 160 624 160 600 q 160 592 163 581 q 165 571 171 556 l 350 103 l 522 537 q 532 562 535 576 q 539 590 539 601 q 539 624 517 634 q 496 643 439 644 l 439 667 l 687 667 l 687 644 q 645 641 622 623 q 599 604 572 535 l 355 -15 z"},"\"":{"x_min":0,"x_max":331,"ha":331,"o":"m 253 422 l 238 422 l 206 645 q 206 646 206 648 q 204 659 204 664 q 204 688 215 701 q 226 714 246 714 q 266 714 276 701 q 287 688 287 665 q 287 658 287 654 q 287 649 286 645 z m 93 422 l 77 422 l 46 645 q 45 653 44 658 q 44 662 44 665 q 44 688 55 701 q 65 714 85 714 q 105 714 116 701 q 127 688 127 665 q 127 661 125 648 q 125 646 125 645 z"},"7":{"x_min":0,"x_max":493,"ha":493,"o":"m 34 531 l 40 667 l 460 667 l 460 636 l 202 -15 l 141 -15 l 397 598 l 125 598 q 85 598 72 584 q 58 570 56 531 z"},"S":{"x_min":0,"x_max":537,"ha":537,"o":"m 72 3 l 50 164 l 72 161 q 93 90 138 52 q 184 14 249 14 q 311 14 352 50 q 394 85 394 135 q 394 207 262 293 q 251 301 246 304 l 239 309 q 111 393 88 431 q 73 454 66 477 q 59 500 59 525 q 59 595 113 638 q 167 681 255 681 q 293 681 338 668 q 384 655 393 655 q 401 655 409 657 q 417 659 427 663 l 445 526 l 424 525 q 399 586 356 620 q 314 653 261 653 q 209 653 175 624 q 141 596 141 552 q 141 484 283 392 l 286 390 q 291 387 300 381 q 390 324 427 284 q 449 261 461 231 q 473 201 473 170 q 473 83 413 33 q 354 -16 247 -16 q 215 -16 171 -3 q 126 10 112 10 q 101 10 91 8 q 81 6 72 3 z"},"}":{"x_min":0,"x_max":500,"ha":500,"o":"m 87 740 l 92 740 q 197 740 237 704 q 277 668 277 571 l 277 467 q 277 390 305 361 q 333 333 414 325 l 414 296 q 334 290 306 260 q 277 231 277 154 l 277 50 q 277 -47 237 -83 q 197 -119 92 -119 l 87 -119 l 87 -94 q 157 -93 182 -68 q 207 -42 207 34 l 207 104 q 207 214 237 255 q 267 295 347 310 q 267 325 237 365 q 207 406 207 516 l 207 586 q 207 662 182 688 q 156 714 87 715 z"},"Z":{"x_min":0,"x_max":690,"ha":690,"o":"m 13 0 l 13 32 l 491 626 l 193 626 q 131 626 111 604 q 90 583 84 513 l 61 515 l 69 667 l 617 667 l 617 635 l 138 44 l 486 44 q 533 44 553 52 q 573 60 587 79 q 597 92 620 191 l 621 197 l 642 195 l 629 0 z"},"x":{"x_min":0,"x_max":464,"ha":464,"o":"m -16 0 l -16 21 q -14 21 -11 20 q -8 20 -3 20 q 21 20 44 35 q 67 51 104 93 l 203 205 l 109 327 q 78 368 52 383 q 26 398 -9 400 l -8 421 l 200 421 l 201 400 q 181 400 170 394 q 159 389 159 378 q 159 373 162 368 q 164 362 174 349 l 247 256 l 315 334 q 324 344 329 354 q 334 365 334 372 q 334 383 321 390 q 308 397 281 400 l 282 421 l 484 421 l 484 400 l 478 400 q 439 400 406 382 q 374 364 338 323 l 262 236 l 375 91 q 405 52 427 36 q 450 20 474 20 q 479 20 481 20 q 484 21 486 21 l 485 0 l 274 0 l 275 21 q 277 21 281 21 q 284 20 285 20 q 301 20 310 26 q 319 32 319 43 q 319 52 309 65 q 308 67 308 67 l 218 185 l 132 86 q 120 72 116 65 q 113 58 113 51 q 113 37 126 29 q 140 21 166 21 l 175 21 l 176 0 z"},")":{"x_min":0,"x_max":355,"ha":355,"o":"m 34 657 l 64 684 q 166 583 219 466 q 271 349 271 224 q 271 98 219 -17 q 167 -133 65 -236 l 34 -210 q 114 -120 157 -9 q 199 103 199 224 q 199 345 157 456 q 114 567 34 657 z"},"&":{"x_min":0,"x_max":728,"ha":728,"o":"m 276 395 q 310 414 327 441 q 344 468 344 504 q 344 545 324 570 q 304 594 270 594 q 238 594 219 574 q 200 554 200 519 q 200 485 219 454 q 238 423 276 395 z m 221 339 q 164 307 134 263 q 104 219 104 168 q 104 112 141 76 q 178 39 234 39 q 276 39 322 62 q 368 85 414 130 q 389 184 343 234 q 297 285 221 339 z m 201 357 q 164 396 146 431 q 128 465 128 497 q 128 551 168 585 q 209 620 273 620 q 334 620 371 590 q 407 561 407 511 q 407 475 382 445 q 356 414 295 378 q 371 313 407 274 q 443 235 469 194 q 528 262 565 320 q 603 378 603 397 q 603 407 588 413 q 573 419 548 420 l 549 442 l 733 441 l 732 418 q 683 417 665 409 q 646 402 631 379 q 626 372 613 351 q 551 250 485 171 q 496 153 515 122 q 575 21 607 21 q 621 21 641 29 q 662 37 690 54 l 700 37 q 662 10 630 -4 q 599 -17 572 -17 q 532 -17 501 9 q 470 35 429 107 q 363 46 305 16 q 246 -14 192 -14 q 115 -14 66 35 q 16 83 16 159 q 16 227 60 274 q 104 321 201 357 z"},"_":{"x_min":0,"x_max":500,"ha":500,"o":"m 0 -178 l 500 -178 l 500 -236 l 0 -236 z"},"v":{"x_min":0,"x_max":470,"ha":470,"o":"m 216 -10 l 81 305 q 57 363 36 380 q 16 397 -19 400 l -19 421 l 197 421 l 197 400 q 160 397 148 392 q 135 386 135 372 q 135 366 137 357 q 140 348 144 338 l 250 83 l 348 303 q 355 319 359 333 q 363 348 363 359 q 363 378 346 388 q 329 397 291 400 l 291 421 l 474 421 l 474 400 q 444 395 424 374 q 403 353 373 283 l 247 -7 z"},"O":{"x_min":0,"x_max":844,"ha":844,"o":"m 417 -16 q 342 -16 276 6 q 210 28 160 70 q 103 118 72 183 q 41 248 41 321 q 41 395 72 464 q 103 533 160 584 q 213 632 280 657 q 347 682 425 682 q 499 682 566 660 q 633 637 684 595 q 741 548 771 484 q 802 419 802 344 q 802 269 770 200 q 739 131 680 79 q 626 31 561 8 q 496 -16 417 -16 z m 430 15 q 548 15 624 98 q 699 181 699 313 q 699 378 682 434 q 665 490 631 535 q 588 591 531 621 q 473 652 410 652 q 293 652 217 570 q 140 489 140 363 q 140 297 158 236 q 177 175 209 132 q 250 77 308 46 q 366 15 430 15 z"},"(":{"x_min":0,"x_max":355,"ha":355,"o":"m 322 -210 l 291 -236 q 189 -135 136 -18 q 84 99 84 224 q 84 350 136 465 q 188 580 291 684 l 321 657 q 240 566 198 456 q 156 345 156 224 q 156 104 198 -8 q 241 -120 322 -210 z"},"C":{"x_min":0,"x_max":757,"ha":757,"o":"m 669 484 q 630 569 568 612 q 506 656 425 656 q 370 656 316 635 q 262 613 225 577 q 186 537 164 481 q 142 426 142 363 q 142 209 226 112 q 310 14 441 14 q 522 14 587 53 q 652 92 699 169 l 723 166 l 656 12 l 643 12 q 610 12 541 -2 q 471 -16 431 -16 q 348 -16 280 5 q 213 27 161 70 q 104 117 73 181 q 43 246 43 321 q 43 377 62 432 q 80 486 116 534 q 168 604 247 642 q 326 681 415 681 q 452 681 498 674 q 543 666 623 646 q 627 645 634 644 q 655 639 665 639 q 670 639 676 640 q 681 641 687 642 l 697 485 z"},"W":{"x_min":0,"x_max":911,"ha":911,"o":"m 438 549 l 484 433 l 532 549 q 540 569 544 584 q 548 600 548 610 q 548 625 530 634 q 512 642 481 642 q 453 642 437 634 q 421 625 421 611 q 421 603 425 586 q 430 570 438 549 z m 334 83 l 438 338 l 350 559 q 329 613 304 628 q 280 643 225 643 q 188 643 168 633 q 149 622 149 602 q 149 592 153 576 q 156 560 163 542 z m 283 -15 l 78 531 q 52 601 26 623 q 0 644 -46 644 l -46 667 l 692 667 l 692 644 q 647 643 626 629 q 604 616 586 571 l 509 384 l 628 83 l 803 550 l 805 554 q 820 595 820 613 q 820 628 801 636 q 782 644 746 644 l 746 667 l 949 667 l 950 644 q 889 637 859 559 q 857 553 856 550 l 642 -15 l 583 -15 l 465 283 l 343 -15 z"},"A":{"x_min":0,"x_max":650,"ha":650,"o":"m 212 334 l 399 334 l 306 584 z m -29 0 l -29 22 q 12 22 32 36 q 52 49 74 106 l 266 618 q 271 631 274 641 q 277 651 277 659 q 277 664 275 669 q 274 675 271 681 l 364 681 l 575 111 q 597 53 615 38 q 633 22 665 22 l 676 22 l 676 0 l 386 0 l 387 22 q 388 22 390 22 q 415 20 425 20 q 463 20 480 29 q 497 39 497 59 q 497 64 494 75 q 492 85 487 99 l 415 294 l 197 294 l 123 99 q 119 86 116 77 q 114 67 114 61 q 114 40 130 30 q 146 20 180 20 q 189 20 212 22 q 214 22 215 22 l 215 0 z"},"f":{"x_min":0,"x_max":318,"ha":318,"o":"m 27 0 l 27 21 l 35 21 q 69 21 83 35 q 97 49 97 83 l 97 377 l 27 377 l 27 394 l 97 421 q 99 487 116 536 q 133 585 165 621 q 205 665 248 688 q 291 712 332 712 q 377 712 411 696 q 446 680 446 661 q 446 645 435 629 q 424 613 412 613 q 411 613 372 637 q 333 662 288 662 q 229 662 201 619 q 174 576 174 483 l 174 421 l 285 421 l 291 377 l 174 377 l 174 92 q 174 48 193 34 q 213 21 284 21 l 284 0 z"},"Q":{"x_min":0,"x_max":844,"ha":844,"o":"m 528 -6 q 576 -26 661 -102 q 685 -123 698 -134 q 733 -163 765 -177 q 797 -192 836 -197 l 821 -220 q 808 -223 794 -225 q 781 -226 769 -226 q 733 -226 697 -213 q 661 -201 618 -172 q 591 -154 529 -103 q 466 -53 427 -33 q 410 -24 355 -14 q 300 -3 263 13 q 151 61 96 137 q 41 214 41 321 q 41 395 72 464 q 103 533 160 584 q 213 632 280 657 q 347 682 425 682 q 499 682 566 660 q 633 637 684 595 q 741 548 771 484 q 802 419 802 344 q 802 225 729 131 q 656 37 528 -6 z m 430 15 q 548 15 624 98 q 699 181 699 313 q 699 378 682 434 q 665 490 631 535 q 588 591 531 621 q 473 652 410 652 q 293 652 217 570 q 140 489 140 363 q 140 297 158 236 q 177 175 209 132 q 250 77 308 46 q 366 15 430 15 z"},"w":{"x_min":0,"x_max":735,"ha":735,"o":"m 220 -12 l 75 307 q 53 356 32 376 q 12 396 -18 400 l -18 421 l 191 421 l 190 400 q 155 397 142 391 q 128 384 128 369 q 128 360 130 351 q 133 341 138 331 l 254 77 l 356 326 q 342 369 322 384 q 302 398 258 400 l 258 421 l 475 421 l 474 400 q 439 396 428 390 q 417 383 417 368 q 417 362 419 354 q 421 347 425 336 l 530 83 l 631 321 q 637 335 639 345 q 642 354 642 362 q 642 380 630 388 q 619 396 574 400 l 574 421 l 751 421 l 750 400 q 693 387 664 313 q 659 302 657 297 l 528 -12 l 500 -12 l 375 281 l 250 -12 z"},"-":{"x_min":0,"x_max":389,"ha":389,"o":"m 42 176 l 42 247 l 347 247 l 347 176 z"},"E":{"x_min":0,"x_max":608,"ha":608,"o":"m -3 0 l -3 23 l 17 23 q 79 23 102 41 q 126 58 126 103 l 126 566 q 126 607 106 626 q 86 644 42 644 l 31 644 l 31 667 l 532 667 l 540 516 l 515 516 q 506 585 482 606 q 458 628 372 628 l 219 628 l 219 364 l 357 364 q 426 364 444 380 q 462 397 468 444 l 487 444 l 487 239 l 466 239 q 461 292 445 308 q 429 325 357 325 l 219 325 l 219 127 q 219 73 239 56 q 258 39 321 39 l 409 39 q 480 39 510 64 q 539 89 553 159 l 575 159 l 560 0 z"},"s":{"x_min":0,"x_max":369,"ha":369,"o":"m 39 114 l 59 114 q 72 68 102 43 q 132 18 174 18 q 214 18 239 40 q 264 62 264 96 q 264 138 176 182 q 142 198 123 209 q 81 232 62 259 q 43 285 43 320 q 43 370 86 402 q 129 435 197 435 q 223 435 250 429 q 276 424 304 412 l 304 321 l 286 321 q 275 365 250 387 q 224 409 183 409 q 148 409 127 391 q 106 372 106 343 q 106 322 120 303 q 133 284 155 274 q 162 271 173 266 q 328 194 328 119 q 328 64 289 28 q 250 -8 190 -8 q 158 -8 123 0 q 87 7 85 7 q 80 7 76 3 q 72 0 69 -8 l 50 -9 z"},">":{"x_min":0,"x_max":833,"ha":833,"o":"m 129 559 l 704 323 l 704 273 l 129 37 l 129 100 l 617 298 l 129 497 z"},"l":{"x_min":0,"x_max":271,"ha":271,"o":"m 100 593 q 100 617 88 628 q 77 639 37 649 l 37 668 l 170 715 l 178 715 l 178 84 q 178 47 191 34 q 205 21 240 21 l 241 0 l 37 0 l 37 21 q 74 22 87 35 q 100 47 100 84 z"},"8":{"x_min":0,"x_max":493,"ha":493,"o":"m 225 325 q 169 295 143 255 q 116 216 116 163 q 116 95 156 52 q 195 9 256 9 q 314 9 353 50 q 392 91 392 152 q 392 205 352 247 q 312 288 225 325 z m 291 384 q 334 407 357 443 q 379 479 379 526 q 379 585 343 623 q 308 660 251 660 q 197 660 159 625 q 122 590 122 540 q 122 491 161 455 q 200 418 291 384 z m 194 337 q 126 368 92 409 q 58 451 58 503 q 58 578 114 628 q 169 679 253 679 q 338 679 393 635 q 448 591 448 524 q 448 477 417 440 q 385 402 318 371 q 393 333 428 287 q 464 242 464 184 q 464 101 403 43 q 342 -14 252 -14 q 164 -14 107 36 q 50 86 50 162 q 50 218 84 260 q 119 302 194 337 z"},"\\":{"x_min":0,"x_max":278,"ha":278,"o":"m 333 -93 l 287 -93 l -24 681 l 23 681 z"},"e":{"x_min":0,"x_max":445,"ha":445,"o":"m 111 299 l 319 299 q 312 350 285 379 q 257 409 216 409 q 176 409 148 380 q 121 352 111 299 z m 400 95 q 356 39 312 12 q 268 -14 219 -14 q 139 -14 86 48 q 33 110 33 206 q 33 307 90 371 q 147 435 236 435 q 333 435 409 299 l 410 297 l 410 278 l 106 278 q 104 267 104 256 q 103 246 103 235 q 103 148 146 94 q 189 41 259 41 q 292 41 324 57 q 356 73 390 107 z"},"b":{"x_min":0,"x_max":521,"ha":521,"o":"m 154 334 l 154 149 q 154 84 182 51 q 209 18 264 18 q 330 18 371 69 q 412 120 412 203 q 412 281 374 331 q 335 380 275 380 q 246 380 216 368 q 186 357 154 334 z m 76 593 q 76 618 65 628 q 53 639 14 649 l 13 668 l 147 715 l 154 715 l 154 364 q 199 398 239 415 q 278 432 313 432 q 385 432 434 375 q 483 317 483 231 q 483 179 466 135 q 448 90 414 56 q 379 21 334 5 q 290 -10 217 -10 q 185 -10 149 -5 q 114 0 76 11 z"},"%":{"x_min":0,"x_max":799,"ha":799,"o":"m 691 156 q 691 220 667 258 q 644 296 604 296 q 565 296 542 258 q 518 220 518 156 q 518 92 542 54 q 565 16 604 16 q 644 16 667 54 q 691 92 691 156 z m 604 321 q 672 321 717 274 q 762 228 762 156 q 762 84 717 38 q 672 -9 604 -9 q 536 -9 491 38 q 446 84 446 156 q 446 228 491 274 q 536 321 604 321 z m 564 692 l 608 692 l 233 -29 l 190 -29 z m 194 670 q 262 670 307 623 q 352 577 352 505 q 352 433 307 387 q 263 341 194 341 q 126 341 81 387 q 36 434 36 505 q 36 577 81 623 q 126 670 194 670 z m 280 505 q 280 569 257 607 q 233 645 194 645 q 154 645 131 607 q 107 569 107 505 q 107 441 131 403 q 154 365 194 365 q 233 365 257 403 q 280 440 280 505 z"},"m":{"x_min":0,"x_max":851,"ha":851,"o":"m 389 241 q 389 336 372 364 q 355 392 312 392 q 288 392 255 378 q 222 364 173 333 l 173 84 q 173 47 187 34 q 200 21 236 21 l 236 0 l 32 0 l 32 21 q 68 22 82 35 q 95 47 95 84 l 95 325 q 95 349 83 360 q 72 371 32 381 l 32 400 l 166 446 l 173 446 l 173 360 q 237 399 281 417 q 324 435 358 435 q 397 435 423 416 q 449 397 460 360 q 537 402 581 419 q 624 435 655 435 q 715 435 740 398 q 765 362 765 270 q 765 250 765 239 q 765 229 764 219 l 760 138 q 760 134 759 126 q 758 95 758 83 q 758 66 760 56 q 763 46 768 39 q 775 31 790 27 q 805 22 828 21 l 828 0 l 620 0 l 620 21 l 622 21 q 655 21 667 44 q 680 66 683 147 l 685 216 q 686 225 686 234 q 686 243 686 260 q 686 336 669 365 q 651 393 609 393 q 586 393 554 380 q 522 366 468 333 l 468 84 q 468 47 481 34 q 495 21 530 21 l 531 0 l 326 0 l 327 21 q 363 22 376 34 q 389 47 389 84 z"},"#":{"x_min":0,"x_max":769,"ha":769,"o":"m 342 424 l 293 284 l 434 284 l 484 424 z m 380 711 l 445 711 l 363 481 l 503 481 l 585 711 l 649 711 l 568 481 l 718 481 l 698 424 l 547 424 l 498 284 l 660 284 l 639 228 l 478 228 l 397 -1 l 332 -1 l 413 228 l 273 228 l 192 -1 l 128 -1 l 209 228 l 51 228 l 72 284 l 229 284 l 278 424 l 108 424 l 129 481 l 299 481 z"},",":{"x_min":0,"x_max":247,"ha":247,"o":"m 64 -138 q 104 -119 127 -87 q 151 -56 151 -23 q 151 -16 148 -11 q 146 -7 141 -7 q 140 -7 132 -8 q 123 -10 116 -10 q 88 -10 74 3 q 60 16 60 41 q 60 63 76 78 q 92 92 118 92 q 151 92 171 68 q 191 44 191 3 q 191 -51 159 -95 q 127 -139 73 -160 z"},"n":{"x_min":0,"x_max":558,"ha":558,"o":"m 389 219 q 389 226 390 238 q 390 250 390 256 q 390 337 373 367 q 355 397 312 397 q 289 397 256 383 q 223 369 173 337 l 173 84 q 173 47 186 35 q 199 22 236 21 l 236 0 l 32 0 l 32 21 q 68 22 82 35 q 95 47 95 84 l 95 329 q 95 353 83 364 q 72 375 32 385 l 32 404 l 166 446 l 173 446 l 173 364 q 237 404 281 421 q 324 439 358 439 q 418 439 444 402 q 469 365 469 273 q 469 253 469 242 q 469 232 468 222 l 464 138 q 464 133 463 125 q 462 94 462 82 q 462 45 478 33 q 494 21 539 21 l 539 0 l 312 0 l 312 21 l 317 21 q 355 21 370 45 q 384 69 387 147 z"},"h":{"x_min":0,"x_max":556,"ha":556,"o":"m 386 215 q 387 224 387 233 q 387 242 387 259 q 387 335 370 364 q 353 392 310 392 q 286 392 253 378 q 220 364 171 333 l 171 84 q 171 47 184 34 q 197 22 233 21 l 234 0 l 30 0 l 30 21 q 66 22 80 35 q 93 47 93 84 l 93 593 q 93 617 81 628 q 70 639 30 649 l 30 668 l 163 715 l 171 715 l 171 359 q 234 398 278 416 q 322 434 356 434 q 416 434 441 397 q 466 361 466 269 q 466 249 466 238 q 465 227 465 218 l 461 138 q 461 135 460 129 q 459 97 459 84 q 459 46 475 34 q 491 22 537 21 l 537 0 l 310 0 l 310 21 l 315 21 q 353 21 367 45 q 381 69 384 147 z"},"z":{"x_min":0,"x_max":445,"ha":445,"o":"m 34 0 l 34 15 l 304 387 l 168 387 q 134 387 121 383 q 107 379 99 370 q 95 365 89 347 q 83 330 72 285 l 50 285 l 81 459 l 97 459 q 100 437 111 429 q 123 421 164 421 l 403 421 l 402 404 l 131 37 l 294 37 q 339 37 359 55 q 379 72 394 121 l 416 120 l 375 0 z"},"B":{"x_min":0,"x_max":661,"ha":661,"o":"m 220 391 l 351 391 q 417 391 451 421 q 486 452 486 510 q 486 580 447 611 q 408 643 321 643 q 309 643 302 643 q 296 643 290 642 l 220 642 z m 220 360 l 220 154 q 220 82 243 56 q 267 30 328 30 q 411 30 462 77 q 514 124 514 198 q 514 239 496 274 q 478 309 446 331 q 423 347 391 354 q 360 361 310 361 q 305 361 293 360 q 281 360 274 360 z m 32 0 l 32 23 l 43 23 q 87 23 107 41 q 127 59 127 100 l 127 566 q 127 608 106 629 q 86 649 43 649 q 42 649 40 648 q 38 647 36 647 q 35 647 33 648 q 32 648 32 649 l 32 671 l 324 671 q 451 671 517 633 q 582 595 582 521 q 582 469 546 433 q 510 397 440 379 q 531 351 573 306 q 616 262 616 195 q 616 145 591 103 q 565 61 518 34 q 486 16 438 8 q 390 0 307 0 z"},"K":{"x_min":0,"x_max":688,"ha":688,"o":"m 220 100 q 220 59 240 40 q 260 22 304 22 l 311 22 l 315 22 l 315 0 l 32 0 l 32 22 l 43 22 q 87 22 107 40 q 127 59 127 100 l 127 566 q 127 607 107 626 q 87 644 43 644 l 32 644 l 32 667 l 315 667 l 315 644 l 304 644 q 260 644 240 626 q 220 607 220 566 l 220 332 q 252 332 288 357 q 324 382 378 443 q 426 497 454 540 q 482 582 482 600 q 482 620 467 630 q 452 640 408 646 l 408 667 l 685 667 l 685 646 q 644 641 616 633 q 588 625 570 613 q 557 604 543 588 q 529 572 502 531 q 462 474 424 429 q 385 384 342 346 q 361 336 377 325 q 394 313 408 299 q 449 258 509 179 q 568 101 596 72 q 624 44 648 33 q 672 22 706 22 q 708 22 713 21 q 718 21 721 21 q 724 21 726 21 q 727 21 729 22 l 729 0 l 426 0 l 426 22 l 441 22 q 467 22 479 28 q 492 35 492 48 q 492 68 457 117 q 422 166 363 228 q 322 271 294 287 q 265 303 234 303 q 232 303 229 304 q 226 304 225 304 q 223 304 222 304 q 221 303 220 303 z"},"R":{"x_min":0,"x_max":683,"ha":683,"o":"m 32 0 l 32 23 l 43 23 q 87 23 107 41 q 127 59 127 100 l 127 566 q 127 607 107 625 q 87 644 43 644 l 32 644 l 32 667 l 260 667 q 424 667 503 619 q 583 571 583 473 q 583 413 548 370 q 512 327 443 303 l 507 201 q 571 99 612 55 q 653 11 686 7 l 684 -14 l 670 -14 q 620 -14 577 6 q 534 27 500 67 q 460 115 419 185 q 378 255 368 268 q 364 272 357 275 q 350 277 338 277 q 329 277 302 276 q 274 275 256 275 q 250 275 238 275 q 227 276 220 276 l 220 100 q 220 60 240 41 q 259 23 301 23 l 315 23 l 315 0 z m 220 297 l 297 297 q 380 297 427 341 q 474 385 474 463 q 474 547 426 592 q 377 636 288 636 q 283 636 269 637 q 255 637 246 637 q 236 637 230 637 q 225 637 220 636 z"},"T":{"x_min":0,"x_max":706,"ha":706,"o":"m 396 100 q 396 59 416 41 q 436 23 480 23 l 491 23 l 491 0 l 209 0 l 209 23 l 220 23 q 265 23 284 41 q 304 59 304 100 l 304 625 l 159 625 q 98 625 79 604 q 59 583 47 504 l 24 504 l 41 681 l 63 681 q 66 673 74 670 q 82 667 106 667 l 593 667 q 617 667 625 670 q 634 673 637 681 l 658 681 l 676 504 l 653 504 q 641 583 622 604 q 602 625 541 625 l 396 625 z"},"P":{"x_min":0,"x_max":595,"ha":595,"o":"m 220 309 q 239 305 255 303 q 271 301 286 301 q 368 301 416 351 q 464 401 464 486 q 464 562 419 602 q 374 642 288 642 q 283 642 269 643 q 255 643 246 643 q 236 643 230 643 q 225 643 220 642 z m 220 100 q 220 59 240 41 q 259 23 304 23 l 315 23 l 315 0 l 32 0 l 32 23 l 43 23 q 87 23 107 41 q 127 59 127 100 l 127 566 q 127 608 107 627 q 86 647 43 647 q 42 647 40 646 q 38 646 36 646 q 34 646 33 646 q 33 646 32 647 l 32 669 l 283 669 q 423 669 493 620 q 564 571 564 474 q 564 381 497 329 q 430 276 310 276 q 291 276 268 277 q 246 279 220 282 z"},"|":{"x_min":0,"x_max":500,"ha":500,"o":"m 219 764 l 281 764 l 281 -236 l 219 -236 z"},"t":{"x_min":0,"x_max":305,"ha":305,"o":"m 164 165 q 164 90 175 69 q 185 48 212 48 q 228 48 247 60 q 266 71 287 94 l 302 75 q 277 33 249 10 q 221 -12 191 -12 q 135 -12 110 31 q 84 74 84 169 l 84 372 l 25 372 l 25 397 q 69 408 99 441 q 130 475 144 528 l 164 528 l 164 421 l 291 421 l 291 372 l 164 372 z"},"M":{"x_min":0,"x_max":968,"ha":968,"o":"m 14 0 l 14 21 l 23 21 q 67 21 83 39 q 100 57 104 113 l 134 561 q 134 565 135 570 q 135 574 135 582 q 135 614 121 627 q 107 640 69 646 l 69 667 l 221 667 l 481 118 l 745 667 l 895 667 l 895 646 q 854 641 840 631 q 826 622 826 601 q 826 595 827 586 q 827 576 828 565 l 859 125 q 864 53 879 37 q 895 21 939 21 l 944 21 l 944 0 l 684 0 l 684 21 l 694 21 q 738 21 758 40 q 778 59 778 101 q 778 108 778 113 q 777 117 777 120 l 745 556 l 481 5 l 450 0 l 181 557 l 154 113 q 154 110 153 104 q 153 98 153 96 q 153 55 170 38 q 187 22 231 21 l 231 0 z"},"g":{"x_min":0,"x_max":472,"ha":472,"o":"m 167 -17 q 124 -51 104 -76 q 85 -102 85 -123 q 85 -159 129 -187 q 173 -215 236 -215 q 315 -215 365 -181 q 416 -147 416 -96 q 416 -51 370 -35 q 324 -18 167 -17 z m 226 147 q 271 147 298 179 q 325 210 325 264 q 325 332 297 371 q 269 410 220 410 q 174 410 147 378 q 120 347 120 293 q 120 226 149 186 q 177 147 226 147 z m 140 140 q 91 162 66 196 q 41 229 41 273 q 41 339 95 387 q 149 434 226 434 q 261 434 290 424 q 319 414 345 392 q 352 391 357 390 q 363 389 368 389 q 379 389 428 396 q 461 401 482 404 l 483 342 l 474 342 q 456 342 432 344 q 409 347 377 353 q 388 336 394 319 q 399 301 399 280 q 399 212 348 171 q 297 130 213 130 q 198 130 189 130 q 181 131 174 132 q 138 118 122 105 q 106 92 106 79 q 106 48 235 42 q 243 41 247 41 q 387 33 429 10 q 471 -14 471 -69 q 471 -143 391 -195 q 311 -248 193 -248 q 121 -248 73 -219 q 26 -189 26 -147 q 26 -113 98 -48 q 123 -25 137 -12 q 89 -7 64 11 q 39 29 39 59 q 39 79 56 94 q 73 110 140 140 z"},"j":{"x_min":0,"x_max":262,"ha":262,"o":"m 95 -111 l 95 329 q 95 353 83 364 q 72 375 32 385 l 32 404 l 166 446 l 173 446 l 173 10 q 173 -124 126 -188 q 79 -252 -19 -252 q -64 -252 -94 -233 q -124 -214 -124 -187 q -124 -172 -114 -162 q -104 -152 -90 -152 q -73 -152 -47 -174 l -44 -176 l -43 -177 q 0 -213 30 -213 q 64 -213 80 -188 q 95 -164 95 -111 z m 129 676 q 150 676 165 664 q 179 653 179 636 q 179 620 165 608 q 150 597 129 597 q 108 597 94 608 q 79 620 79 636 q 79 653 94 664 q 108 676 129 676 z"},"i":{"x_min":0,"x_max":271,"ha":271,"o":"m 134 676 q 155 676 170 664 q 184 653 184 636 q 184 620 170 608 q 155 597 134 597 q 113 597 98 609 q 83 620 83 636 q 83 653 98 664 q 112 676 134 676 z m 100 329 q 100 353 88 364 q 77 375 37 385 l 37 404 l 170 446 l 178 446 l 178 84 q 178 47 191 34 q 204 22 241 21 l 241 0 l 37 0 l 37 21 q 74 22 87 35 q 100 47 100 84 z"},"y":{"x_min":0,"x_max":468,"ha":468,"o":"m 226 -9 l 74 319 q 53 364 34 381 q 14 398 -15 400 l -16 421 l 195 421 l 195 400 q 162 398 150 391 q 138 384 138 366 q 138 361 140 354 q 142 347 146 339 l 265 84 l 351 307 q 360 330 363 341 q 366 353 366 362 q 366 381 352 390 q 338 399 304 400 l 304 421 l 477 421 l 476 400 q 446 394 429 378 q 412 363 395 322 l 209 -147 q 185 -208 165 -229 q 146 -250 117 -250 q 98 -250 86 -240 q 74 -230 74 -214 q 74 -192 115 -177 q 124 -174 128 -172 q 150 -164 164 -146 q 179 -128 195 -88 z"},"@":{"x_min":0,"x_max":986,"ha":986,"o":"m 581 164 q 551 112 513 87 q 476 61 430 61 q 369 61 332 106 q 295 151 295 225 q 295 278 319 331 q 343 383 386 425 q 418 456 457 474 q 495 491 532 491 q 575 491 602 467 q 629 443 640 396 l 666 484 l 736 484 l 653 186 q 653 185 652 184 q 644 155 644 133 q 644 110 656 96 q 669 83 690 83 q 707 83 729 92 q 750 100 770 115 q 830 159 861 228 q 893 297 893 382 q 893 450 869 505 q 844 560 794 604 q 750 643 688 664 q 627 685 558 685 q 467 685 391 656 q 316 628 257 571 q 193 509 161 427 q 128 346 128 247 q 128 162 156 98 q 184 35 244 -16 q 300 -63 372 -88 q 443 -112 528 -112 q 607 -112 683 -86 q 758 -61 827 -11 l 842 -29 q 770 -83 689 -110 q 608 -137 522 -137 q 431 -137 355 -115 q 279 -92 221 -47 q 147 8 109 87 q 71 166 71 262 q 71 362 113 448 q 155 535 235 601 q 299 655 377 682 q 455 709 545 709 q 714 709 815 618 q 916 526 916 374 q 916 297 888 229 q 859 161 808 114 q 780 88 748 75 q 715 61 682 61 q 635 61 609 87 q 584 112 581 164 z m 536 471 q 510 471 488 456 q 466 441 443 407 q 408 354 387 293 q 366 231 366 183 q 366 138 386 111 q 406 85 439 85 q 471 85 500 107 q 530 128 557 172 q 585 218 602 271 q 618 324 618 367 q 618 413 595 442 q 572 471 536 471 z"},".":{"x_min":0,"x_max":247,"ha":247,"o":"m 123 92 q 146 92 162 77 q 178 62 178 41 q 178 20 162 5 q 146 -10 123 -10 q 100 -10 84 5 q 68 20 68 41 q 68 62 84 77 q 100 92 123 92 z"},"p":{"x_min":0,"x_max":521,"ha":521,"o":"m 159 85 q 188 57 219 42 q 249 28 278 28 q 337 28 373 75 q 408 123 408 204 q 408 278 368 330 q 328 381 271 381 q 249 381 221 370 q 193 358 159 335 z m 81 329 q 81 354 70 364 q 58 375 19 385 l 18 404 l 152 446 l 159 446 l 159 363 q 206 398 245 416 q 284 433 318 433 q 385 433 431 377 q 476 322 476 238 q 476 135 412 64 q 347 -7 255 -7 q 236 -7 213 -2 q 189 2 159 11 l 159 -157 q 159 -193 173 -206 q 186 -219 222 -220 l 222 -241 l 18 -241 l 19 -220 q 55 -219 68 -207 q 81 -194 81 -157 z"},"X":{"x_min":0,"x_max":681,"ha":681,"o":"m -48 0 l -48 21 q -5 22 30 43 q 65 63 129 139 l 292 333 l 141 523 l 140 524 q 53 634 -48 646 l -48 667 l 269 667 l 269 646 q 232 645 210 635 q 189 626 189 611 q 189 603 194 594 q 198 585 215 564 l 349 400 l 490 567 q 500 579 505 591 q 510 603 510 615 q 510 628 492 635 q 475 643 439 646 l 439 667 l 692 667 l 692 646 q 643 637 608 617 q 574 597 527 543 l 376 366 l 556 138 q 560 133 567 124 q 646 22 729 21 l 729 0 l 439 0 l 439 21 l 453 21 q 481 21 495 27 q 510 32 510 43 q 510 52 506 61 q 501 70 486 90 l 320 300 l 148 93 q 132 73 127 65 q 123 56 123 48 q 123 34 137 27 q 151 20 178 20 q 187 20 192 20 q 197 21 202 21 l 202 0 z"},"*":{"x_min":0,"x_max":500,"ha":500,"o":"m 252 366 l 115 244 l 94 259 l 174 428 l 9 518 l 18 544 l 204 522 l 238 704 l 269 704 l 301 522 l 484 546 l 491 515 l 330 428 l 409 262 l 385 244 z"},"Y":{"x_min":0,"x_max":582,"ha":582,"o":"m 346 100 q 346 59 366 41 q 385 23 430 23 l 441 23 l 441 0 l 158 0 l 158 23 l 169 23 q 213 23 233 41 q 253 59 253 100 l 253 244 l 55 559 q 28 602 0 620 q -28 638 -76 644 l -75 667 l 205 667 l 205 644 l 197 644 q 169 644 154 635 q 139 625 139 609 q 139 600 143 590 q 147 579 163 555 l 318 313 l 466 558 q 476 574 480 586 q 484 598 484 609 q 484 626 468 635 q 452 643 416 644 l 416 667 l 653 667 l 653 644 q 607 638 580 619 q 552 601 523 552 l 346 254 z"},"c":{"x_min":0,"x_max":430,"ha":430,"o":"m 397 94 q 352 38 311 13 q 269 -12 221 -12 q 140 -12 86 47 q 32 105 32 195 q 32 296 104 367 q 175 438 276 438 q 331 438 364 420 q 398 402 398 374 q 398 360 388 351 q 379 342 363 342 q 346 342 316 367 q 311 371 308 373 l 306 375 q 271 405 244 405 q 189 405 149 350 q 109 296 109 216 q 109 136 150 85 q 191 33 252 33 q 283 33 314 51 q 346 68 382 107 z"},"!":{"x_min":0,"x_max":289,"ha":289,"o":"m 144 92 q 167 92 183 77 q 199 62 199 41 q 199 20 183 5 q 167 -10 144 -10 q 121 -10 105 5 q 90 20 90 41 q 90 62 105 77 q 121 92 144 92 z m 132 178 l 93 667 l 197 667 l 154 178 z"},"/":{"x_min":0,"x_max":278,"ha":278,"o":"m -55 -93 l 255 681 l 302 681 l -9 -93 z"},"[":{"x_min":0,"x_max":401,"ha":401,"o":"m 206 -155 q 206 -210 304 -211 q 325 -212 337 -212 l 337 -237 l 133 -237 l 133 666 l 337 666 l 337 641 q 324 641 301 641 q 206 640 206 585 z"},"6":{"x_min":0,"x_max":493,"ha":493,"o":"m 136 309 q 132 288 130 271 q 128 253 128 239 q 128 131 167 67 q 205 4 270 4 q 328 4 362 55 q 396 106 396 193 q 396 275 364 321 q 333 367 276 367 q 248 367 213 353 q 178 338 136 309 z m 408 678 l 421 660 q 309 622 237 541 q 165 459 142 344 q 186 371 223 383 q 261 396 295 396 q 374 396 425 341 q 476 287 476 202 q 476 109 417 46 q 357 -17 270 -17 q 173 -17 111 58 q 48 133 48 251 q 48 407 145 522 q 242 637 408 678 z"},"r":{"x_min":0,"x_max":368,"ha":368,"o":"m 95 329 q 95 353 83 364 q 72 375 32 385 l 32 404 l 166 446 l 173 446 l 173 341 l 215 393 q 218 397 224 405 q 246 433 264 433 q 277 433 310 421 q 342 410 365 409 l 338 344 l 336 344 q 319 344 289 358 q 259 371 244 371 q 233 371 225 365 q 216 360 198 339 l 173 309 l 173 84 q 173 47 187 34 q 200 21 236 21 l 236 0 l 32 0 l 32 21 q 68 22 82 35 q 95 47 95 84 z"},"2":{"x_min":0,"x_max":493,"ha":493,"o":"m 16 0 l 16 22 q 67 87 163 178 q 191 205 203 217 q 286 300 319 358 q 352 415 352 472 q 352 538 313 577 q 275 615 209 615 q 159 615 116 577 q 73 540 50 475 l 26 475 q 48 573 104 626 q 160 679 241 679 q 328 679 385 624 q 442 569 442 486 q 442 431 410 380 q 378 329 285 248 q 273 238 246 215 q 147 132 89 69 l 364 69 q 401 69 416 84 q 431 99 441 149 l 461 149 l 440 0 z"},"{":{"x_min":0,"x_max":500,"ha":500,"o":"m 413 740 l 413 715 q 344 714 318 688 q 293 662 293 586 l 293 516 q 293 406 263 365 q 233 325 153 310 q 233 295 263 255 q 293 214 293 104 l 293 34 q 293 -42 318 -68 q 343 -93 413 -94 l 413 -119 l 408 -119 q 302 -119 263 -83 q 223 -47 223 50 l 223 154 q 223 231 194 260 q 166 290 86 296 l 86 325 q 167 333 195 361 q 223 390 223 467 l 223 571 q 223 668 263 704 q 302 740 408 740 z"},"9":{"x_min":0,"x_max":493,"ha":493,"o":"m 376 352 q 380 374 382 391 q 384 408 384 422 q 384 530 345 594 q 307 657 242 657 q 184 657 150 607 q 116 556 116 469 q 116 387 148 341 q 179 295 236 295 q 265 295 300 309 q 335 324 376 352 z m 104 -17 l 91 1 q 203 39 275 121 q 347 202 370 318 q 326 292 289 279 q 252 266 218 266 q 139 266 88 320 q 37 375 37 459 q 37 552 96 615 q 155 678 242 678 q 339 678 401 603 q 464 528 464 410 q 464 254 367 139 q 271 24 104 -17 z"}," ":{"x_min":0,"x_max":247,"ha":247,"o":""},"I":{"x_min":0,"x_max":346,"ha":346,"o":"m 219 100 q 219 60 239 41 q 259 23 303 23 l 315 23 l 315 0 l 32 0 l 32 23 l 43 23 q 87 23 107 41 q 127 59 127 100 l 127 566 q 127 607 107 626 q 87 644 43 644 l 32 644 l 32 667 l 314 667 l 314 644 l 303 644 q 259 644 239 626 q 219 607 219 566 z"},"H":{"x_min":0,"x_max":852,"ha":852,"o":"m 220 100 q 220 59 240 41 q 259 23 304 23 l 315 23 l 315 0 l 32 0 l 32 23 l 43 23 q 87 23 107 41 q 127 59 127 100 l 127 566 q 127 607 107 626 q 87 644 43 644 l 32 644 l 32 667 l 315 667 l 315 644 l 304 644 q 260 644 240 626 q 220 607 220 566 l 220 353 l 632 353 l 632 566 q 632 607 612 626 q 592 644 548 644 l 537 644 l 537 667 l 819 667 l 819 644 l 808 644 q 764 644 744 626 q 724 607 724 566 l 725 100 q 725 59 744 41 q 764 23 808 23 l 819 23 l 819 0 l 537 0 l 537 23 l 548 23 q 593 23 612 41 q 632 59 632 100 l 632 325 l 220 325 z"},"4":{"x_min":0,"x_max":493,"ha":493,"o":"m 79 249 l 293 249 l 293 308 q 293 364 296 433 q 299 501 306 579 z m 293 -15 l 293 192 l 23 192 l 23 220 l 339 675 l 369 675 l 369 249 l 473 249 l 473 192 l 369 192 l 369 -15 z"},"~":{"x_min":0,"x_max":833,"ha":833,"o":"m 747 370 l 747 306 q 698 271 651 253 q 604 236 558 236 q 537 236 514 240 q 491 245 465 253 q 450 258 422 268 q 324 303 275 303 q 234 303 190 285 q 146 267 87 225 l 87 290 q 138 326 186 343 q 233 361 276 361 q 303 361 333 355 q 362 349 418 329 q 424 327 435 323 q 515 294 559 294 q 601 294 645 312 q 689 330 747 370 z"},"D":{"x_min":0,"x_max":808,"ha":808,"o":"m 32 0 l 32 22 l 43 22 q 87 22 107 40 q 127 59 127 100 l 127 566 q 127 607 107 626 q 87 644 43 644 l 32 644 l 32 667 q 160 673 225 676 q 291 678 319 678 q 438 678 510 662 q 583 646 635 609 q 697 565 731 498 q 765 431 765 351 q 765 270 731 202 q 697 134 631 83 q 573 39 503 20 q 433 0 323 0 z m 220 650 l 220 104 q 220 62 243 46 q 267 30 340 30 q 492 30 576 112 q 660 194 660 343 q 660 492 568 571 q 476 650 300 650 z"},"^":{"x_min":0,"x_max":1000,"ha":1000,"o":"m 456 714 l 543 714 l 797 438 l 752 438 l 499 651 l 245 438 l 201 438 z"},"0":{"x_min":0,"x_max":493,"ha":493,"o":"m 246 681 q 340 681 403 584 q 465 487 465 334 q 465 181 403 84 q 340 -13 246 -13 q 153 -13 91 84 q 28 182 28 334 q 28 486 91 583 q 153 681 246 681 z m 247 6 q 311 6 342 82 q 373 159 373 314 q 373 498 343 579 q 313 660 247 660 q 182 660 151 582 q 121 503 121 333 q 121 163 151 84 q 182 6 247 6 z"},"F":{"x_min":0,"x_max":583,"ha":583,"o":"m 219 100 q 219 59 239 41 q 258 23 303 23 l 314 23 l 314 0 l 31 0 l 31 23 l 42 23 q 86 23 106 41 q 126 59 126 100 l 126 566 q 126 607 106 626 q 86 644 42 644 l 31 644 l 31 667 l 519 667 l 527 533 l 502 533 q 494 587 473 605 q 453 623 392 623 l 219 623 l 219 372 l 371 372 q 438 372 455 386 q 473 401 482 441 l 500 441 l 500 254 l 480 255 q 473 302 457 317 q 441 332 377 332 l 371 332 l 219 332 z"},"`":{"x_min":0,"x_max":500,"ha":500,"o":"m 336 489 l 303 489 l 142 589 q 127 599 119 609 q 112 619 112 629 q 112 645 122 654 q 132 664 148 664 q 158 664 168 658 q 178 652 195 635 z"},"k":{"x_min":0,"x_max":500,"ha":500,"o":"m 169 84 q 169 47 182 34 q 195 22 231 21 l 232 0 l 28 0 l 28 21 q 64 22 78 35 q 91 47 91 84 l 91 593 q 91 617 79 628 q 68 639 28 649 l 28 668 l 161 715 l 169 715 l 169 262 l 294 344 l 297 346 q 334 370 334 384 q 334 393 323 396 q 311 400 284 400 l 284 421 l 493 421 l 493 400 l 485 400 q 427 400 336 339 q 322 330 314 325 l 225 267 l 408 87 q 447 49 472 35 q 496 21 521 21 l 528 21 l 530 0 l 300 0 l 300 21 l 304 21 q 325 21 337 27 q 349 34 349 45 q 349 52 345 58 q 341 64 327 79 l 169 234 z"},"u":{"x_min":0,"x_max":558,"ha":558,"o":"m 468 107 q 468 82 478 72 q 489 62 529 51 l 530 33 l 397 -15 l 389 -15 l 389 60 q 326 21 281 3 q 237 -15 203 -15 q 144 -15 119 22 q 95 60 95 161 l 95 329 q 95 353 83 364 q 72 375 32 385 l 32 404 l 166 446 l 173 446 l 173 178 q 173 82 190 54 q 207 27 250 27 q 273 27 306 41 q 339 55 389 87 l 389 329 q 389 358 373 369 q 357 379 302 385 l 302 404 l 460 446 l 468 446 z"},"]":{"x_min":0,"x_max":401,"ha":401,"o":"m 200 585 q 200 641 102 642 q 81 642 69 642 l 69 666 l 273 666 l 273 -237 l 69 -237 l 69 -212 q 81 -212 102 -211 q 200 -210 200 -155 z"},"U":{"x_min":0,"x_max":871,"ha":871,"o":"m 312 667 l 312 644 l 301 644 q 257 644 237 626 q 217 607 217 566 l 217 284 q 217 219 227 182 q 237 146 260 117 q 290 80 340 59 q 391 39 455 39 q 522 39 576 60 q 629 82 658 119 q 679 146 688 185 q 697 224 697 301 l 697 566 q 697 607 677 626 q 657 644 613 644 l 602 644 l 602 667 l 843 667 l 843 644 l 832 644 q 788 644 768 626 q 748 607 748 566 l 748 284 q 748 129 672 56 q 595 -16 432 -16 q 277 -16 202 58 q 126 133 126 284 l 126 566 q 126 607 106 626 q 86 644 42 644 l 31 644 l 31 667 z"},"o":{"x_min":0,"x_max":520,"ha":520,"o":"m 403 181 q 403 285 358 348 q 314 412 243 412 q 185 412 149 367 q 113 322 113 247 q 113 144 157 79 q 202 15 271 15 q 332 15 367 60 q 403 104 403 181 z m 487 210 q 487 115 421 51 q 356 -12 258 -12 q 161 -12 97 52 q 32 117 32 215 q 32 310 98 373 q 164 436 261 436 q 357 436 422 372 q 487 307 487 210 z"},"N":{"x_min":0,"x_max":886,"ha":886,"o":"m 183 100 q 183 59 203 41 q 222 23 267 23 l 278 23 l 278 0 l 32 0 l 32 23 l 43 23 q 87 23 107 41 q 127 59 127 100 l 127 579 q 127 615 113 626 q 100 637 40 646 l 40 667 l 204 667 l 703 137 l 703 566 q 703 607 683 626 q 663 644 619 644 l 608 644 l 608 667 l 854 667 l 854 644 l 843 644 q 799 644 779 626 q 759 607 759 566 l 759 -9 l 729 -9 l 183 568 z"},"+":{"x_min":0,"x_max":833,"ha":833,"o":"m 388 596 l 446 596 l 446 327 l 709 327 l 709 270 l 446 270 l 446 0 l 388 0 l 388 270 l 124 270 l 124 327 l 388 327 z"},"G":{"x_min":0,"x_max":777,"ha":777,"o":"m 671 50 q 606 17 537 0 q 467 -16 395 -16 q 323 -16 265 3 q 208 23 161 63 q 105 110 75 178 q 44 247 44 323 q 44 394 72 462 q 101 529 152 580 q 202 630 270 657 q 337 683 414 683 q 464 683 533 666 q 603 648 625 648 q 634 648 644 649 q 655 650 665 652 l 671 485 l 641 484 q 618 568 564 612 q 511 655 430 655 q 306 655 227 565 q 147 475 147 331 q 147 186 224 101 q 301 15 431 15 q 477 15 512 25 q 548 35 579 55 l 579 182 q 579 233 557 250 q 534 267 457 268 l 457 291 l 745 291 l 745 268 q 701 263 686 247 q 671 231 671 192 z"},"q":{"x_min":0,"x_max":525,"ha":525,"o":"m 360 87 l 360 272 q 360 338 333 370 q 306 403 251 403 q 186 403 144 352 q 103 301 103 218 q 103 140 142 90 q 180 41 240 41 q 269 41 298 52 q 328 64 360 87 z m 438 -157 q 438 -193 451 -206 q 465 -219 501 -220 l 501 -241 l 297 -241 l 298 -220 q 333 -219 347 -207 q 360 -194 360 -157 l 360 58 q 314 23 276 7 q 237 -10 202 -10 q 127 -10 79 49 q 30 108 30 200 q 30 303 93 368 q 156 432 256 432 q 283 432 315 424 q 348 416 388 400 l 421 432 l 447 432 q 443 408 440 387 q 438 367 438 352 z"},"d":{"x_min":0,"x_max":531,"ha":531,"o":"m 360 87 l 360 339 q 331 371 302 386 q 273 401 243 401 q 181 401 142 350 q 103 300 103 218 q 103 140 142 90 q 180 41 240 41 q 269 41 298 52 q 327 63 360 87 z m 360 593 q 360 618 348 628 q 337 639 298 649 l 297 668 l 431 715 l 438 715 l 438 107 q 438 83 450 72 q 461 62 501 51 l 501 33 l 368 -15 l 360 -15 l 360 58 q 314 23 276 7 q 237 -10 202 -10 q 127 -10 79 49 q 30 108 30 200 q 30 303 93 368 q 156 432 256 432 q 285 432 311 427 q 336 421 360 409 z"},"1":{"x_min":0,"x_max":493,"ha":493,"o":"m 228 588 q 213 573 185 554 q 157 536 102 505 l 89 521 q 149 563 195 604 q 240 646 264 681 l 306 681 l 306 84 q 306 50 318 36 q 330 21 357 21 l 397 21 l 397 0 l 130 0 l 130 21 l 174 21 q 203 21 216 35 q 228 49 228 84 z"},"5":{"x_min":0,"x_max":493,"ha":493,"o":"m 100 319 l 84 329 l 103 666 l 354 666 q 369 666 377 669 q 385 672 389 678 l 410 678 l 394 599 l 128 599 l 116 406 q 147 418 177 425 q 207 431 235 431 q 326 431 385 371 q 445 311 445 219 q 445 115 379 50 q 313 -16 209 -16 q 132 -16 86 3 q 40 22 40 53 q 40 68 52 79 q 63 89 80 89 q 102 89 132 61 q 142 52 147 48 q 172 27 189 20 q 207 13 226 13 q 284 13 325 63 q 366 114 366 188 q 366 262 323 309 q 279 356 210 356 q 181 356 154 347 q 127 338 100 319 z"}}}
